<svg xmlns="http://www.w3.org/2000/svg" width="1000" height="760" viewBox="0 0 1000 760" role="img" aria-labelledby="title description">
  <title id="title">Baseline and DuckTutor output tokens by benchmark scenario</title>
  <desc id="description">Two line charts compare baseline and DuckTutor average output tokens for Codex Sol and Claude Opus 5 across five scenarios.</desc>
  <style>
    :root { color-scheme: light dark; }
    .background { fill: #ffffff; }
    text { fill: #24292f; font: 14px -apple-system, BlinkMacSystemFont, "Segoe UI", sans-serif; }
    .title { font-size: 20px; font-weight: 600; }
    .provider { font-size: 17px; font-weight: 600; }
    .axis { stroke: #57606a; stroke-width: 1; }
    .grid { stroke: #d0d7de; stroke-width: 1; }
    .baseline { fill: none; stroke: #bc4c00; stroke-width: 3; }
    .ducktutor { fill: none; stroke: #0969da; stroke-width: 3; }
    .baseline-point { fill: #bc4c00; }
    .ducktutor-point { fill: #0969da; }
    .muted { fill: #57606a; }
    @media (prefers-color-scheme: dark) {
      .background { fill: #0d1117; }
      text { fill: #f0f6fc; }
      .axis { stroke: #8c959f; }
      .grid { stroke: #30363d; }
      .baseline { stroke: #d29922; }
      .ducktutor { stroke: #58a6ff; }
      .baseline-point { fill: #d29922; }
      .ducktutor-point { fill: #58a6ff; }
      .muted { fill: #8c959f; }
    }
  </style>

  <rect class="background" width="1000" height="760"/>

  <text class="title" x="70" y="34">Average output tokens by scenario</text>
  <line class="baseline" x1="660" y1="28" x2="700" y2="28"/>
  <text x="710" y="33">Baseline</text>
  <line class="ducktutor" x1="820" y1="28" x2="860" y2="28"/>
  <text x="870" y="33">DuckTutor</text>

  <text class="provider" x="70" y="78">Codex Sol</text>
  <text class="muted" x="18" y="190" transform="rotate(-90 18 190)">Output tokens</text>
  <line class="grid" x1="70" y1="130" x2="950" y2="130"/>
  <line class="grid" x1="70" y1="190" x2="950" y2="190"/>
  <line class="grid" x1="70" y1="250" x2="950" y2="250"/>
  <line class="axis" x1="70" y1="310" x2="950" y2="310"/>
  <line class="axis" x1="70" y1="100" x2="70" y2="310"/>
  <text class="muted" x="42" y="135">300</text>
  <text class="muted" x="42" y="195">200</text>
  <text class="muted" x="42" y="255">100</text>
  <text class="muted" x="56" y="315">0</text>
  <polyline class="baseline" points="90,117.8 300,232.8 510,139.2 720,164.2 930,253"><title>Codex Sol baseline</title></polyline>
  <polyline class="ducktutor" points="90,212.6 300,224 510,200.2 720,223.8 930,251.8"><title>Codex Sol DuckTutor</title></polyline>
  <g class="baseline-point"><circle cx="90" cy="117.8" r="4"/><circle cx="300" cy="232.8" r="4"/><circle cx="510" cy="139.2" r="4"/><circle cx="720" cy="164.2" r="4"/><circle cx="930" cy="253" r="4"/></g>
  <g class="ducktutor-point"><circle cx="90" cy="212.6" r="4"/><circle cx="300" cy="224" r="4"/><circle cx="510" cy="200.2" r="4"/><circle cx="720" cy="223.8" r="4"/><circle cx="930" cy="251.8" r="4"/></g>

  <text class="provider" x="70" y="390">Claude Opus 5</text>
  <text class="muted" x="18" y="515" transform="rotate(-90 18 515)">Output tokens</text>
  <line class="grid" x1="70" y1="410" x2="950" y2="410"/>
  <line class="grid" x1="70" y1="480" x2="950" y2="480"/>
  <line class="grid" x1="70" y1="550" x2="950" y2="550"/>
  <line class="axis" x1="70" y1="620" x2="950" y2="620"/>
  <line class="axis" x1="70" y1="410" x2="70" y2="620"/>
  <text class="muted" x="34" y="415">1200</text>
  <text class="muted" x="42" y="485">800</text>
  <text class="muted" x="42" y="555">400</text>
  <text class="muted" x="56" y="625">0</text>
  <polyline class="baseline" points="90,451.9 300,486 510,486.3 720,421.8 930,523.3"><title>Claude Opus 5 baseline</title></polyline>
  <polyline class="ducktutor" points="90,576 300,571.3 510,579.8 720,565.8 930,573.6"><title>Claude Opus 5 DuckTutor</title></polyline>
  <g class="baseline-point"><circle cx="90" cy="451.9" r="4"/><circle cx="300" cy="486" r="4"/><circle cx="510" cy="486.3" r="4"/><circle cx="720" cy="421.8" r="4"/><circle cx="930" cy="523.3" r="4"/></g>
  <g class="ducktutor-point"><circle cx="90" cy="576" r="4"/><circle cx="300" cy="571.3" r="4"/><circle cx="510" cy="579.8" r="4"/><circle cx="720" cy="565.8" r="4"/><circle cx="930" cy="573.6" r="4"/></g>

  <g class="muted" text-anchor="middle">
    <text x="90" y="650">Explain</text>
    <text x="300" y="650">Diff size</text>
    <text x="510" y="650">Abstraction</text>
    <text x="720" y="650">Coupling</text>
    <text x="930" y="650">Understanding</text>
  </g>
  <text class="muted" x="510" y="692" text-anchor="middle">Benchmark scenario</text>
  <text class="muted" x="70" y="730">Per-pair averages · 3 samples per scenario · 2026-09-04 · DuckTutor v0.13.0</text>
</svg>
